<svg xmlns="http://www.w3.org/2000/svg" width="32" height="32" viewBox="0 0 32 32">
<rect width="32" height="32" fill="#4f5260"/>
<rect x="2" y="2" width="28" height="28" fill="#5d6070"/>
<path d="M0 8h32M0 21h32M8 0v32M22 0v32" stroke="#454856" stroke-width="1" opacity=".55"/>
<g fill="#f7fdff">
<rect x="6" y="7" width="5" height="4"/><rect x="9" y="5" width="3" height="3"/>
<rect x="19" y="8" width="6" height="5"/><rect x="17" y="11" width="4" height="4"/>
<rect x="8" y="20" width="6" height="5"/><rect x="12" y="18" width="4" height="4"/>
<rect x="21" y="21" width="4" height="4"/>
</g>
<g fill="#cdefff">
<rect x="7" y="8" width="3" height="2"/><rect x="20" y="9" width="4" height="3"/>
<rect x="9" y="21" width="4" height="3"/><rect x="22" y="22" width="2" height="2"/>
</g>
<g fill="#ffffff" opacity=".45">
<rect x="5" y="6" width="7" height="6"/><rect x="18" y="7" width="8" height="7"/>
<rect x="7" y="19" width="8" height="7"/><rect x="20" y="20" width="6" height="6"/>
</g>
</svg>