<svg xmlns="http://www.w3.org/2000/svg" width="360" height="260" viewBox="0 0 360 260" shape-rendering="crispEdges"><rect width="360" height="260" fill="#111027"/><circle cx="286" cy="54" r="28" fill="#ddd9ff"/><circle cx="296" cy="49" r="23" fill="#9794c4"/><path fill="#292847" d="M0 130 70 88 132 128 192 75 255 132 320 90 360 115v145H0z"/><path fill="#17162a" d="M0 160 80 120 150 160 220 112 300 158 360 125v135H0z"/><rect x="65" y="104" width="22" height="122" fill="#5b3928"/><path fill="#77492f" d="M68 104h6v122h-6zm11 0h5v122h-5z"/><path fill="#354a37" d="M35 72h84v46H35zm18-24h50v32H53zm-8 68h72v36H45z"/><rect x="0" y="215" width="360" height="45" fill="#4d372c"/><rect x="0" y="208" width="360" height="9" fill="#647853"/><rect x="250" y="182" width="24" height="26" fill="#18131d"/><rect x="245" y="190" width="35" height="14" fill="#20202a"/><rect x="254" y="187" width="5" height="4" fill="#e34a4a"/><rect x="268" y="187" width="5" height="4" fill="#e34a4a"/></svg>