<svg xmlns="http://www.w3.org/2000/svg" width="96" height="96" viewBox="0 0 96 96" shape-rendering="crispEdges">
<rect width="96" height="96" fill="none"/>
<polygon points="31,47 24,42 18,38 11,37 6,41 11,48 6,55 9,62 18,67 27,64 35,56" fill="#21171b"/>
<polygon points="30,49 23,45 18,41 12,40 10,42 15,48 10,54 13,59 19,63 27,60 32,55" fill="#d96d2d"/>
<polygon points="18,41 12,40 10,42 15,48 10,54 13,59 17,61 20,54 22,46" fill="#f4e2bf"/>
<polygon points="17,45 13,44 15,48 12,53 15,57 18,58 19,53 20,48" fill="#d5b58c"/>
<polygon points="23,47 29,50 27,59 22,61 24,55" fill="#9b472f"/>
<polygon points="28,46 36,43 58,44 66,49 66,65 61,69 31,69 27,64" fill="#21171b"/>
<polygon points="31,48 38,46 57,47 63,51 63,63 59,66 32,66 30,62" fill="#d96d2d"/>
<polygon points="36,47 53,47 57,50 53,53 36,52" fill="#f07b31"/>
<polygon points="31,58 44,55 56,58 57,65 34,66" fill="#9b472f"/>
<polygon points="44,57 55,55 61,59 58,66 48,66" fill="#f4e2bf"/>
<polygon points="50,60 58,59 57,65 51,65" fill="#d5b58c"/>
<polygon points="29,62 36,62 34,78 32,81 26,81 28,69" fill="#39292b"/>
<rect x="30" y="62" width="5" height="5" fill="#d96d2d"/>
<rect x="27" y="79" width="8" height="3" fill="#21171b"/>
<polygon points="43,63 50,63 52,75 50,78 44,78 42,70" fill="#39292b"/>
<rect x="44" y="63" width="5" height="4" fill="#9b472f"/>
<rect x="45" y="76" width="8" height="3" fill="#21171b"/>
<polygon points="53,63 60,63 59,76 57,79 51,79 52,70" fill="#39292b"/>
<rect x="54" y="63" width="5" height="5" fill="#d96d2d"/>
<rect x="52" y="77" width="8" height="3" fill="#21171b"/>
<polygon points="64,62 71,62 73,78 71,81 65,81 63,69" fill="#39292b"/>
<rect x="65" y="62" width="5" height="4" fill="#9b472f"/>
<rect x="66" y="79" width="8" height="3" fill="#21171b"/>
<polygon points="55,47 65,48 65,57 61,65 56,62 58,55" fill="#21171b"/>
<polygon points="57,49 63,50 63,57 60,63 57,60 59,54" fill="#f4e2bf"/>
<rect x="59" y="56" width="4" height="5" fill="#d5b58c"/>
<polygon points="54,35 57,30 59,18 67,30 70,30 76,17 81,34 83,40 82,50 77,56 62,57 55,52" fill="#21171b"/>
<polygon points="57,36 59,32 62,25 67,33 71,33 76,24 78,35 80,40 79,48 74,53 63,54 58,50" fill="#d96d2d"/>
<polygon points="61,29 62,22 65,31" fill="#f4e2bf"/>
<polygon points="73,31 76,22 78,34" fill="#f4e2bf"/>
<polygon points="58,39 64,34 73,34 77,38 72,40 61,42" fill="#f07b31"/>
<rect x="57" y="43" width="8" height="5" fill="#9b472f"/>
<polygon points="66,44 78,43 84,47 80,53 69,53 64,49" fill="#f4e2bf"/>
<rect x="68" y="48" width="8" height="4" fill="#d5b58c"/>
<polygon points="81,47 87,49 82,52" fill="#181216"/>
<rect x="65" y="35" width="10" height="3" fill="#21171b"/>
<rect x="66" y="38" width="9" height="7" fill="#21171b"/>
<rect x="68" y="39" width="6" height="4" fill="#f8c94f"/>
<rect x="71" y="39" width="2" height="4" fill="#171216"/>
<rect x="68" y="39" width="2" height="1" fill="#fff0a1"/>
<rect x="61" y="48" width="3" height="2" fill="#d5b58c"/>
<rect x="78" y="54" width="3" height="2" fill="#21171b"/>
<rect x="75" y="18" width="2" height="5" fill="#9b472f"/>
</svg>
