<svg xmlns="http://www.w3.org/2000/svg" width="32" height="42" viewBox="0 0 32 42" shape-rendering="crispEdges"><rect x="16" y="15" width="2" height="1" fill="#1f1519"/><rect x="16" y="16" width="1" height="1" fill="#1f1519"/><rect x="17" y="16" width="1" height="1" fill="#3c2520"/><rect x="18" y="16" width="1" height="1" fill="#010000"/><rect x="15" y="16" width="1" height="2" fill="#040204"/><rect x="16" y="17" width="1" height="1" fill="#6c4334"/><rect x="17" y="17" width="2" height="1" fill="#a1765e"/><rect x="15" y="18" width="1" height="1" fill="#562e21"/><rect x="16" y="18" width="1" height="1" fill="#120d11"/><rect x="17" y="18" width="1" height="1" fill="#2d1a19"/><rect x="18" y="18" width="1" height="1" fill="#1f1519"/><rect x="14" y="18" width="1" height="2" fill="#000000"/><rect x="12" y="19" width="1" height="1" fill="#120d11"/><rect x="13" y="19" width="1" height="1" fill="#a1765e"/><rect x="15" y="19" width="1" height="1" fill="#2d1a19"/><rect x="17" y="19" width="1" height="1" fill="#040204"/><rect x="18" y="19" width="1" height="1" fill="#000000"/><rect x="16" y="19" width="1" height="2" fill="#a1765e"/><rect x="12" y="20" width="3" height="1" fill="#a1765e"/><rect x="15" y="20" width="1" height="1" fill="#562e21"/><rect x="17" y="20" width="1" height="1" fill="#371d18"/><rect x="18" y="20" width="1" height="1" fill="#3c2520"/><rect x="19" y="20" width="1" height="1" fill="#120d11"/><rect x="13" y="21" width="1" height="1" fill="#3c2520"/><rect x="16" y="21" width="2" height="1" fill="#562e21"/><rect x="18" y="21" width="1" height="1" fill="#6c4334"/><rect x="14" y="21" width="1" height="2" fill="#1f1519"/><rect x="15" y="21" width="1" height="2" fill="#a1765e"/><rect x="19" y="21" width="1" height="2" fill="#562e21"/><rect x="11" y="22" width="1" height="1" fill="#562e21"/><rect x="18" y="22" width="1" height="1" fill="#371d18"/><rect x="12" y="21" width="1" height="3" fill="#a1765e"/><rect x="13" y="22" width="1" height="2" fill="#6c4334"/><rect x="16" y="22" width="1" height="2" fill="#562e21"/><rect x="17" y="22" width="1" height="2" fill="#3c2520"/><rect x="11" y="23" width="1" height="1" fill="#6c4334"/><rect x="14" y="23" width="1" height="1" fill="#040204"/><rect x="15" y="23" width="1" height="1" fill="#371d18"/><rect x="18" y="23" width="1" height="1" fill="#2d1a19"/><rect x="19" y="23" width="1" height="2" fill="#6c4334"/><rect x="11" y="24" width="1" height="1" fill="#040204"/><rect x="12" y="24" width="1" height="1" fill="#3c2520"/><rect x="14" y="24" width="1" height="1" fill="#2d1a19"/><rect x="15" y="24" width="1" height="1" fill="#120d11"/><rect x="16" y="24" width="1" height="1" fill="#a1765e"/><rect x="17" y="24" width="1" height="1" fill="#1f1519"/><rect x="20" y="24" width="1" height="1" fill="#000000"/><rect x="11" y="25" width="2" height="1" fill="#2d1a19"/><rect x="14" y="25" width="1" height="1" fill="#1f1519"/><rect x="15" y="25" width="2" height="1" fill="#562e21"/><rect x="17" y="25" width="1" height="1" fill="#3c2520"/><rect x="19" y="25" width="1" height="1" fill="#120d11"/><rect x="20" y="25" width="1" height="1" fill="#1f1519"/><rect x="18" y="24" width="1" height="3" fill="#371d18"/><rect x="11" y="26" width="2" height="1" fill="#1f1519"/><rect x="13" y="26" width="1" height="1" fill="#040204"/><rect x="14" y="26" width="1" height="1" fill="#3c2520"/><rect x="16" y="26" width="1" height="1" fill="#371d18"/><rect x="17" y="26" width="1" height="1" fill="#562e21"/><rect x="19" y="26" width="1" height="1" fill="#010003"/><rect x="20" y="26" width="1" height="1" fill="#2d1a19"/><rect x="15" y="26" width="1" height="2" fill="#6c4334"/><rect x="11" y="27" width="1" height="1" fill="#1f1519"/><rect x="12" y="27" width="1" height="1" fill="#3c2520"/><rect x="13" y="27" width="1" height="1" fill="#6c4334"/><rect x="14" y="27" width="1" height="1" fill="#1f1519"/><rect x="16" y="27" width="1" height="1" fill="#000000"/><rect x="17" y="27" width="1" height="1" fill="#3c2520"/><rect x="18" y="27" width="1" height="1" fill="#562e21"/><rect x="19" y="27" width="1" height="1" fill="#2d1a19"/><rect x="20" y="27" width="1" height="1" fill="#000000"/><rect x="21" y="27" width="1" height="1" fill="#010000"/><rect x="12" y="28" width="1" height="1" fill="#010000"/><rect x="13" y="28" width="2" height="1" fill="#120d11"/><rect x="15" y="28" width="1" height="1" fill="#a1765e"/><rect x="16" y="28" width="1" height="1" fill="#040204"/><rect x="17" y="28" width="2" height="1" fill="#562e21"/><rect x="19" y="28" width="1" height="1" fill="#371d18"/><rect x="20" y="28" width="1" height="1" fill="#120d11"/><rect x="13" y="29" width="1" height="1" fill="#1f1519"/><rect x="14" y="29" width="1" height="1" fill="#6c4334"/><rect x="15" y="29" width="1" height="1" fill="#1f1519"/><rect x="16" y="29" width="1" height="1" fill="#3c2520"/><rect x="17" y="29" width="3" height="1" fill="#562e21"/><rect x="13" y="30" width="1" height="1" fill="#2d1a19"/><rect x="14" y="30" width="1" height="1" fill="#1f1519"/><rect x="16" y="30" width="2" height="1" fill="#562e21"/><rect x="15" y="30" width="1" height="2" fill="#a1765e"/><rect x="18" y="30" width="1" height="2" fill="#3c2520"/><rect x="19" y="30" width="1" height="2" fill="#6c4334"/><rect x="20" y="30" width="1" height="2" fill="#040204"/><rect x="12" y="31" width="1" height="1" fill="#000000"/><rect x="13" y="31" width="2" height="1" fill="#120d11"/><rect x="16" y="31" width="1" height="1" fill="#6c4334"/><rect x="17" y="31" width="1" height="1" fill="#371d18"/><rect x="12" y="32" width="1" height="1" fill="#2d1a19"/><rect x="13" y="32" width="1" height="1" fill="#3c2520"/><rect x="14" y="32" width="1" height="1" fill="#371d18"/><rect x="15" y="32" width="1" height="1" fill="#010000"/><rect x="17" y="32" width="1" height="1" fill="#120d11"/><rect x="18" y="32" width="1" height="1" fill="#2d1a19"/><rect x="19" y="32" width="1" height="1" fill="#371d18"/><rect x="13" y="33" width="1" height="1" fill="#1f1519"/><rect x="14" y="33" width="1" height="1" fill="#040204"/><rect x="18" y="33" width="1" height="1" fill="#120d11"/><rect x="19" y="33" width="1" height="1" fill="#1f1519"/><rect x="12" y="34" width="1" height="1" fill="#010000"/><rect x="13" y="34" width="2" height="1" fill="#562e21"/><rect x="15" y="34" width="1" height="1" fill="#010000"/><rect x="17" y="34" width="1" height="1" fill="#010000"/><rect x="18" y="34" width="1" height="1" fill="#1f1519"/><rect x="19" y="34" width="2" height="1" fill="#2d1a19"/></svg>